<?xml version="1.0" encoding="UTF-8"?><svg id="Layer_1" xmlns="http://www.w3.org/2000/svg" viewBox="0 0 397.44 399.44"><rect x="364.32" y="370.37" width="33.12" height=".25" fill="#ebebeb"/><rect x="270.07" y="373.09" width="8.69" height=".25" fill="#ebebeb"/><rect x="344.13" y="361.09" width="19.19" height=".25" fill="#ebebeb"/><rect y="362.77" width="43.19" height=".25" fill="#ebebeb"/><rect x="52.1" y="362.77" width="6.33" height=".25" fill="#ebebeb"/><rect x="79.01" y="366.99" width="93.68" height=".25" fill="#ebebeb"/><polygon points="82.53 171.53 4.05 171.53 11 85.08 75.57 85.08 82.53 171.53" fill="#ebebeb"/><rect x="41.15" y="171.53" width="4.27" height="182.75" fill="#f5f5f5"/><path d="M60.69,354.28H25.88c0-2.05,1.66-3.71,3.71-3.71h27.4c2.05,0,3.7,1.66,3.7,3.71Z" fill="#f0f0f0"/><polygon points="41.15 178.24 45.42 174.17 45.42 171.53 41.15 171.53 41.15 178.24" fill="#e0e0e0"/><rect x="113.44" y="49.78" width="247.74" height="118.66" fill="#e0e0e0"/><rect x="117.41" y="49.78" width="252.87" height="118.66" fill="#f5f5f5"/><rect x="130.5" y="70.57" width="226.7" height="77.08" fill="#fff"/><rect x="332.53" y="242.07" width="62.88" height="112.2" rx="11.01" ry="11.01" fill="#f5f5f5"/><rect x="313.7" y="242.07" width="62.88" height="112.2" rx="11.01" ry="11.01" fill="#e6e6e6"/><rect x="360.28" y="238.97" width="21.93" height="3.1" rx="1.08" ry="1.08" fill="#f5f5f5"/><rect x="353.71" y="238.97" width="21.93" height="3.1" rx="1.08" ry="1.08" fill="#e6e6e6"/><rect x="128.54" y="301.97" width="238.99" height="52.31" rx="5.46" ry="5.46" fill="#f0f0f0"/><path d="M112.25,205.31h194.29c6.11,0,11.49,5.52,12,12.32l5.17,68.25c.52,6.8-4,12.32-10.14,12.32H119.26c-6.12,0-11.49-5.52-12-12.32l-5.14-68.23c-.53-6.77,4.02-12.34,10.13-12.34Z" fill="#ebebeb"/><path d="M127.28,205.31h194.31c6.12,0,11.49,5.52,12,12.32l5.15,68.25c.51,6.8-4,12.32-10.15,12.32h-194.31c-6.12,0-11.49-5.52-12-12.32l-5.15-68.23c-.51-6.77,4.03-12.34,10.15-12.34Z" fill="#fafafa"/><path d="M235.88,285.88l-5.15-68.22c-.49-6.47-5.59-11.74-11.37-11.74v-1.27c6.43,0,12.1,5.79,12.64,12.91l5.14,68.23-1.26.09Z" fill="#f0f0f0"/><rect x="106.82" y="242.07" width="62.88" height="112.2" rx="11.01" ry="11.01" fill="#f5f5f5"/><rect x="157.26" y="277.76" width="216.46" height="28.97" rx="6.52" ry="6.52" fill="#f5f5f5"/><path d="M259.3,307.36v-1.26c3.06,0,5.55-2.81,5.55-6.25v-15.21c0-3.45-2.49-6.25-5.55-6.25v-1.27c3.76,0,6.82,3.37,6.82,7.52v15.24c0,4.11-3.06,7.48-6.82,7.48Z" fill="#ebebeb"/><rect x="88" y="242.07" width="62.88" height="112.2" rx="11.01" ry="11.01" fill="#e6e6e6"/><path d="M297.11,200.97c27.29,2.45,31.57,36.81,33.5,49.79s-22.51-.49-37.75,1-20.2,7.43-37.2,4.71-24.1-4.64-35.79-2.71-32.25,2.63-34.37-1.05c-2-3.39-7.52-39.06-18.33-46.21-1.74-1.15-1.08-2.78,1.41-3.52,20.54-6.1,103.96-4.21,128.53-2.01Z" fill="#e6e6e6"/><g id="freepik--Shadow--inject-247"><ellipse id="freepik--path--inject-247" cx="197.54" cy="388.12" rx="193.89" ry="11.32" fill="#f5f5f5"/></g><g id="freepik--bubble-speech--inject-247"><path d="M344.62,99.49c.03-2.51-.53-4.99-1.63-7.24-.94-1.65-3.44-6-34.61-6v-1c31.75,0,34.27,4.42,35.48,6.54,1.18,2.39,1.78,5.03,1.75,7.7h-.99Z" fill="#5f33e1"/><path d="M343.48,116.8l-1-.23c.74-3.14,1.31-6.31,1.72-9.51l1,.13c-.4,3.23-.97,6.44-1.72,9.61Z" fill="#5f33e1"/><path d="M340.82,93.48c-4.19-7.36-63.18-4.8-74.12-1.66-14.8,4.26-21.45,42.47-22.58,51.69,0,0,8.69-9.12,16.35-11.43,3.65,1.28,43.88,8.31,51.37,10.31,8.56,2.29,17.65,0,21.83-7.46s11.52-33.76,7.15-41.45Z" fill="#5f33e1"/><path d="M327.59,104.13c-.12,0-.24,0-.36,0-27.9-4-60.19-1.15-60.51-1.12-1.38.12-2.6-.89-2.73-2.27-.12-1.38.89-2.6,2.27-2.73.33,0,33.2-2.91,61.67,1.15,1.38.1,2.42,1.29,2.32,2.67s-1.29,2.42-2.67,2.32v-.03Z" fill="#fff"/><path d="M323.54,117.51c-.15.01-.29.01-.44,0-20.14-3.44-40.58-4.78-61-4-1.38.08-2.57-.97-2.65-2.35s.97-2.57,2.35-2.65h0c20.8-.82,41.63.52,62.16,4,1.38.12,2.41,1.33,2.29,2.71-.12,1.38-1.33,2.41-2.71,2.29Z" fill="#fff"/><path d="M307.02,131.21c-.23,0-.46-.03-.69-.09-15.29-4.28-31.13-6.2-47-5.71-1.38.09-2.57-.96-2.66-2.34s.96-2.57,2.34-2.66c16.44-.58,32.86,1.41,48.69,5.89,1.33.39,2.09,1.77,1.7,3.1-.31,1.06-1.28,1.8-2.39,1.8h.01Z" fill="#fff"/></g><g id="freepik--Emoji--inject-247"><path d="M58.9,84.33c3.21-7.84,44.84-11.7,56.09-10,15.22,2.32,27.08,42.07,29,53,0,0-9.78-7.94-17.68-9.24-3.45,1.73-24.83,9.3-32.4,11-8.65,1.91-17.51,2.23-22.61-4.61s-15.76-31.97-12.4-40.15Z" fill="#5f33e1"/><path d="M114.99,74.34c-11.25-1.72-52.88,2.15-56.08,10-.61,1.82-.81,3.75-.57,5.66,8,12.65,20.26,22.37,34.34,23,17.09.56,34.07-7.89,40.66-17.89-4.96-10.57-11.28-19.69-18.35-20.77Z" isolation="isolate" opacity=".1"/><circle cx="108.91" cy="69.25" r="29.12" fill="#5f33e1"/><circle cx="108.91" cy="69.25" r="29.12" fill="#fff" isolation="isolate" opacity=".4"/><path d="M107.54,60.2c.35.71-.71,1.84-2.37,2.52s-3.28.67-3.64,0,.71-1.84,2.37-2.52,3.26-.7,3.64,0Z" fill="#5f33e1"/><path d="M99.76,53.06c1.88-.72,3.87-1.09,5.88-1.09,1-.01,2.01.05,3,.2,1.02.15,2.03.39,3,.74.54.13.86.67.73,1.21-.11.43-.49.74-.93.76h0c-.78.09-1.65.26-2.48.43s-1.65.43-2.47.7c-1.67.55-3.25,1.34-4.7,2.33.47-.81,1.06-1.54,1.75-2.18.71-.61,1.48-1.15,2.31-1.59.83-.44,1.7-.81,2.59-1.09.91-.31,1.84-.52,2.79-.63l-.27,1.92c-.87-.29-1.75-.52-2.64-.71-.92-.21-1.84-.36-2.78-.49s-1.89-.25-2.85-.31-1.93-.11-2.93-.2Z" fill="#263238"/><path d="M127.1,47.23c-.52.25-1.02.54-1.5.86-.45.29-.86.62-1.24,1-.37.37-.7.76-1,1.19-.29.4-.55.84-.76,1.29l-1.17-1c.62-.38,1.29-.67,2-.84.69-.18,1.4-.25,2.11-.22,1.39.03,2.73.51,3.82,1.38-.63-.13-1.27-.22-1.92-.26-.61-.04-1.23-.01-1.84.08-.59.09-1.18.24-1.74.44-.54.19-1.07.44-1.56.74h0c-.37.23-.86.12-1.09-.25,0,0,0,0,0,0-.11-.23-.11-.49,0-.72.24-.6.58-1.16,1-1.66.39-.45.83-.84,1.33-1.17.53-.34,1.1-.59,1.71-.75.6-.15,1.23-.19,1.85-.11Z" fill="#263238"/><path d="M131.67,54.63c.07.76-1.25,1.49-3,1.64s-3.13-.39-3.19-1.12,1.25-1.49,2.95-1.64,3.16.37,3.24,1.12Z" fill="#5f33e1"/><path d="M108.27,64.04c6.77-3.41,14.11-5.53,21.66-6.25.62-.05,1.16.39,1.25,1,.83,8.52-14.74,13-23,7-.47-.29-.61-.91-.32-1.38.1-.16.24-.29.41-.37Z" fill="#263238"/><path d="M123.79,62.49c-.53.27-1.03.61-1.49,1-1.47-.33-3-.13-4.34.56-1.82.77-3.16,2.37-3.59,4.3,1.98.34,4.01.36,6,.06,1.51-.21,2.98-.61,4.39-1.18,2.13-.78,3.99-2.17,5.33-4-1.17-1.62-3.81-1.94-6.3-.74Z" fill="#5f33e1"/></g><g id="freepik--Heart--inject-247"><path d="M186.17,6.24c-13.13-13.31-42.48-3.88-31.29,14.64,11.19,18.52,36.22,32,41.11,39.07,3.33-14.43,12.61-23.63,18.64-35.69s-9.81-29.85-28.46-18.02Z" fill="#5f33e1"/><path d="M186.17,6.24c-13.13-13.31-42.48-3.88-31.29,14.64,11.19,18.52,36.22,32,41.11,39.07,3.33-14.43,12.61-23.63,18.64-35.69s-9.81-29.85-28.46-18.02Z" isolation="isolate" opacity=".3"/></g><g id="freepik--Character--inject-247"><polygon points="235.22 287.46 243.06 287.46 275.39 388.12 272.77 388.12 235.22 287.46" fill="#5f33e1"/><polygon points="203.52 287.46 211.37 287.46 223.61 388.12 220.99 388.12 203.52 287.46" fill="#5f33e1"/><polygon points="157.84 287.46 149.99 287.46 117.67 388.12 120.29 388.12 157.84 287.46" fill="#5f33e1"/><polygon points="189.53 287.46 181.69 287.46 169.45 388.12 172.07 388.12 189.53 287.46" fill="#5f33e1"/><path d="M228.47,309.77c-37.86.44-91.67-.82-115.46-47.41-16.12-31.57-33.36-98.62,13.87-117.79s119.76,2.47,119.07,39.59,38.22,46.21,51,71.48c15.79,31.39-18.59,53.55-68.48,54.13Z" fill="#5f33e1"/><path d="M228.47,309.77c-37.86.44-91.67-.82-115.46-47.41-16.12-31.57-33.36-98.62,13.87-117.79s119.76,2.47,119.07,39.59,38.22,46.21,51,71.48c15.79,31.39-18.59,53.55-68.48,54.13Z" fill="#fff" isolation="isolate" opacity=".7"/><path d="M268.2,274.42c-.4,5.75-27.74,8.53-61.06,6.21s-54.38-4.08-60.48-17.2c-12.3-26.47-13.89-104,19.44-101.66s102.5,106.9,102.1,112.65Z" fill="#5f33e1" isolation="isolate" opacity=".3"/><path d="M218,159.51l.26,1.79.31,1.91.67,3.86c.49,2.57,1,5.15,1.57,7.71,1.12,5.07,2.51,10.08,4.16,15,.43,1.2.82,2.44,1.31,3.61s.88,2.4,1.41,3.54,1,2.42,1.37,3.23c.19.43.34.8.42,1s.13.22-.71-.21c-.83-.39-1.74-.57-2.65-.52-.62.04-1.23.18-1.8.42-.23.11-.46.23-.68.36-.17.11-.33.24-.49.37-.31.23-.55.53-.7.89,0,.13,0,.14.11.07.58-.72,1.04-1.52,1.35-2.39.95-2.14,1.77-4.78,2.65-7.22l8.35.41c.55,3.06.74,6.18.56,9.28-.1,1.89-.48,3.76-1.12,5.54-.24.65-.55,1.28-.91,1.88-.55.92-1.26,1.74-2.1,2.42-.3.24-.61.45-.93.65-.36.23-.75.42-1.15.58-.89.38-1.84.59-2.81.63-1.61.06-3.2-.31-4.62-1.08-1.42-.77-2.69-1.79-3.75-3-.69-.76-1.32-1.58-1.9-2.43-.9-1.34-1.71-2.73-2.43-4.17-1.42-2.65-2.7-5.37-3.84-8.15-2.26-5.45-4.11-11.07-5.55-16.79-.73-2.84-1.34-5.7-1.88-8.58-.27-1.44-.51-2.88-.73-4.34-.1-.73-.2-1.47-.29-2.21s-.17-1.44-.26-2.34l16.8-1.72Z" fill="#ffbe9d"/><path d="M196.35,156.74c-5.09,9.48,7.68,34.6,7.68,34.6l23-12.51s-1.73-6.65-7.41-19.37c-6.23-13.85-17.08-14.21-23.27-2.72Z" fill="#263238"/><path d="M226.18,195.65l.45-11.26,12.82,4.31s-1.65,10.18-7.19,10.18l-6.08-3.23Z" fill="#ffbe9d"/><path d="M235.18,176.38l4.24,2.27c1.68.91,2.46,2.9,1.85,4.71l-1.82,5.34-12.82-4.31,3.22-6.33c.98-1.93,3.35-2.69,5.27-1.71.02,0,.04.02.06.03Z" fill="#ffbe9d"/><path d="M208.42,148.52c-12.81-2.76-25.96-3.51-39-2.21-8.45.86-15.2,7.41-16.3,15.83-5.21,39.39-1.91,60.34-2.16,71.12l59.37,5.26c-.48-11.28.42-40.72,6-78.54.78-5.3-2.68-10.31-7.91-11.46Z" fill="#263238"/><polygon points="257.13 282.34 268.27 282.61 273 256.94 261.85 256.66 257.13 282.34" fill="#ff8b7b"/><path d="M269.85,280.66l-11.58-3.66c-.42-.15-.88.05-1.06.46l-4.15,9.09c-.39.93.04,1.99.97,2.39.05.02.1.04.14.05,4.2,1.24,5.62,1.34,10.87,3,6.14,1.94,8.61,3.42,15.81,5.7,4.35,1.37,6.51-2.78,4.78-3.79-5.46-3.18-11.59-8.2-13.41-11.58-.55-.83-1.4-1.43-2.37-1.66Z" fill="#263238"/><polygon points="272.99 256.95 270.56 270.18 259.41 269.9 261.84 256.67 272.99 256.95" isolation="isolate" opacity=".2"/><path d="M278.04,190.19c-13.63-6.81-48.22,29.82-92.08,46.17-.95,16.73,17.79,25.34,37.85,22.9,19.87-2.42,27.21-12.95,33.32-27.45-3.44,14.89-.17,30.36-.17,30.36l17.29,4.88s16.29-70.64,3.79-76.86Z" fill="#5f33e1"/><path d="M278.04,190.19c-13.63-6.81-48.22,29.82-92.08,46.17-.95,16.73,17.79,25.34,37.85,22.9,19.87-2.42,27.21-12.95,33.32-27.45-3.44,14.89-.17,30.36-.17,30.36l17.29,4.88s16.29-70.64,3.79-76.86Z" isolation="isolate" opacity=".2"/><polygon points="276.25 269.2 253.92 267.14 253.44 259.79 278.37 261.7 276.25 269.2" fill="#263238"/><path d="M268.54,280.63c-.08-.05-.14-.14-.14-.24,0-.11.07-.21.18-.25.53-.19,5.29-1.81,6.52-.87.24.18.36.47.33.76h0c-.01.49-.26.94-.67,1.2-1.36.9-4.46,0-6.18-.59h-.04ZM274.69,279.63c-.79-.41-3.32.17-5.19.75,2.38.75,4.21.9,5,.4.27-.18.43-.48.44-.8.02-.12-.03-.23-.13-.3l-.12-.05Z" fill="#5f33e1"/><path d="M268.54,280.63l-.06-.05c-.07-.06-.1-.16-.07-.25,0-.12.74-3.05,2.31-4,.45-.29,1-.37,1.51-.24h0c.71.17.86.57.87.87,0,1.27-2.95,3.29-4.36,3.69-.07.02-.14.01-.2-.02ZM272.36,276.68c-.08-.04-.17-.07-.26-.09h0c-.38-.09-.78-.03-1.11.18-1,.63-1.67,2.35-1.93,3.2,1.47-.63,3.53-2.25,3.51-3-.03-.09-.03-.18-.26-.29h.05Z" fill="#5f33e1"/><path d="M199.73,148.96c-6.55-2.93-5.38-6.85-3.23-11.14l-13.78-12.55c.49,5.51.39,14.73-3.41,19.55-1.25,1.53-1.1,3.77.36,5.11,4.32,4.02,9.75,6.67,15.58,7.6,6.73,1.18,8.23-1.65,7.79-4.5-.34-1.83-1.59-3.36-3.31-4.07Z" fill="#ffbe9d"/><path d="M188.34,130.39c-1.47-.51-1.8,1.49-1.8,4.31s4.79,7.78,8.39,7.35c.32-1.48.86-2.91,1.59-4.23l-8.18-7.43Z" isolation="isolate" opacity=".2"/><path d="M212.42,121.23c3.79-3.66,8.64-13.77,7.63-18.76-3.9-1.83-8.31-2.3-12.51-1.33-3.5,1.06-6.77,2.76-9.65,5l6.14,5.24-.12,3.54,3.42,3.79-1,3.42c-.25.85.25,1.75,1.1,1.99.39.11.82.07,1.18-.11l3.81-2.78Z" fill="#263238"/><path d="M185.43,108.17c-2.85,10.67-5.07,16.78-1.56,23.87,5.28,10.66,19.85,10.08,25.85.45,5.4-8.67,9.15-24.66.26-32.16-6.43-5.42-16.03-4.6-21.45,1.82-1.47,1.75-2.53,3.8-3.1,6.02Z" fill="#ffbe9d"/><path d="M180.54,114.59c-.55-6.59-1-11.55-1-17.37,2.88-.73,7.32-2.71,12-.51,3.24,1.69,6.15,3.96,8.57,6.7l-7,4-.52,3.51-4,3.11.36,3.54c.09.88-.56,1.67-1.44,1.76-.41.04-.81-.07-1.14-.32l-5.83-4.42Z" fill="#263238"/><path d="M220.06,105.65c5.07-2.65,12-15.46.12-14.92-7.67.35-17.07,1.37-25.06-3.12,0,0,2.32,4,8.28,4.52,12.95,1.18,13.36-.92,17.23,0,6.81,1.48-.57,13.52-.57,13.52Z" fill="#263238"/><path d="M221.08,94.09c-8.55-4.77-17.94-1.06-25.21-3.82s-15.08,1.56-16.4,7l20.61,6.19c7.81,5.61,9.6,6.78,13.88,5.51,6.22-1.88,15.66-10.09,7.12-14.88Z" fill="#263238"/><path d="M181.22,96.08c-3.66.68-5.61,3.89-2.45,8-1.15-4.43,2.37-5.94,2.37-5.94l.08-2.06Z" fill="#263238"/><path d="M177.03,116.8c.48,2.73,2.03,5.16,4.3,6.75,3,2.08,5.76-.34,5.94-3.82.15-3.13-1.24-8-4.78-8.68s-6.01,2.4-5.46,5.75Z" fill="#ffbe9d"/><path d="M199.7,115.55c-.28.85-.06,1.69.5,1.87s1.24-.36,1.53-1.21.06-1.69-.5-1.87-1.24.36-1.53,1.21Z" fill="#263238"/><path d="M210.05,119.4c-.28.85-.06,1.69.5,1.87s1.24-.36,1.53-1.21.06-1.69-.5-1.87-1.24.36-1.53,1.21Z" fill="#263238"/><path d="M206.84,118.88s.3,5.54,1.65,8.61c-2,.91-4.34-.56-4.34-.56l2.69-8.05Z" fill="#d1a493"/><path d="M199.78,127.98c-1.85-.85-3.26-2.42-3.9-4.35-.04-.14.04-.29.18-.32s.29.04.32.18h0c.75,2.13,2.48,3.78,4.64,4.43.13.04.21.17.18.31,0,0,0,.02,0,.02-.04.14-.19.21-.33.17,0,0,0,0,0,0-.37-.12-.74-.27-1.09-.44Z" fill="#263238"/><path d="M198.36,110.42c-.08-.04-.15-.1-.21-.18-.16-.24-.1-.57.14-.73,1.38-1,3.16-1.28,4.78-.74.28.11.41.42.3.7s-.42.41-.7.3h0c-1.29-.41-2.69-.18-3.78.62-.16.11-.36.12-.53.03Z" fill="#263238"/><path d="M215.54,116.74c-.17-.06-.3-.2-.34-.37-.29-1.31-1.19-2.4-2.43-2.92-.27-.11-.41-.41-.3-.69.1-.26.39-.4.65-.31,1.57.64,2.73,2.01,3.11,3.66.06.28-.11.57-.39.64-.1.03-.2.02-.3-.01Z" fill="#263238"/><polygon points="294.93 372.23 304.07 365.85 292.66 342.37 283.52 348.75 294.93 372.23" fill="#ff8b7b"/><path d="M303.83,362.82l-11.1,4.92c-.41.17-.63.63-.49,1.05l2.9,9.56c.32.95,1.35,1.47,2.3,1.15.05-.02.1-.04.15-.06,4-1.84,5.09-2.71,10.13-4.93,5.89-2.61,8.72-3.13,15.63-6.19,4.17-1.85,3-6.39,1.08-6-6.2,1.22-14.12,1.51-17.72.18-.97-.26-1.99-.14-2.88.32Z" fill="#263238"/><polygon points="292.66 342.38 298.54 354.48 289.4 360.86 283.52 348.76 292.66 342.38" isolation="isolate" opacity=".2"/><path d="M243.39,280.69c-75.19-2.35-94-1.71-92.41-47.43l38.21,3.39s66.6,4.11,74.86,26.28c12.42,33.35,35.09,84.74,35.09,84.74l-15,9.92s-30.8-37.65-40.75-76.9Z" fill="#5f33e1"/><polygon points="302.54 350.32 283.34 361.9 278.59 356.26 299.81 343.02 302.54 350.32" fill="#263238"/><path d="M302.8,363.7c-.1.02-.2-.01-.27-.09-.06-.09-.06-.21,0-.3.28-.5,2.77-4.85,4.32-5,.29-.02.58.11.75.35h0c.31.37.42.87.29,1.34-.43,1.58-3.33,3-5,3.65l-.09.05ZM306.75,358.89c-.86.21-2.38,2.32-3.39,4,2.28-1,3.75-2.11,4-3,.08-.31,0-.64-.2-.89-.06-.1-.18-.16-.3-.14l-.11.03Z" fill="#5f33e1"/><path d="M302.8,363.7h-.08c-.09,0-.18-.05-.22-.14-.06-.11-1.46-2.78-.92-4.53.16-.51.52-.94,1-1.18h0c.65-.34,1-.15,1.23.07.86.94,0,4.42-.83,5.66-.04.06-.11.11-.18.12ZM303.05,358.21c-.09.03-.17.06-.25.11h0c-.35.18-.61.49-.72.87-.35,1.15.3,2.86.67,3.67.69-1.44,1.16-4,.64-4.58-.03-.04-.11-.12-.34-.07h0Z" fill="#5f33e1"/><path d="M238.54,181.22l-12-.19c-.86-.02-1.7.31-2.3.93l-14.93,20c-.33.41-.28,1.01.11,1.36.38.39.86.29,1.59.3l11.81.18c.86.03,1.7-.31,2.31-.92l14.77-19.77c.51-.67.58-1.89-1.36-1.89Z" fill="#5f33e1"/><path d="M175.9,159.64l.19,2.38.23,2.51c.17,1.68.35,3.36.55,5,.41,3.36.86,6.72,1.45,10,1.03,6.49,2.64,12.88,4.8,19.09.52,1.49,1.15,2.95,1.76,4.31.28.71.41.86.37,1s.23.38,1.08.43c1.13.03,2.26-.12,3.35-.44,1.41-.4,2.79-.9,4.13-1.49,1.43-.63,2.87-1.36,4.32-2.14s2.9-1.62,4.33-2.52c1.43-.9,2.91-1.83,4.23-2.7l5.82,6c-1.26,1.58-2.46,2.95-3.8,4.34s-2.69,2.69-4.16,3.95c-1.48,1.31-3.04,2.52-4.67,3.64-1.72,1.21-3.55,2.27-5.46,3.17-2.21,1.05-4.57,1.76-7,2.11-1.48.19-2.97.19-4.45,0-1.68-.23-3.31-.74-4.82-1.51-1.52-.76-2.9-1.78-4.08-3-1.05-1.11-1.96-2.35-2.7-3.68-1-1.81-1.92-3.57-2.73-5.39-3.08-7.04-5.38-14.4-6.87-21.94-.74-3.69-1.37-7.38-1.82-11.08-.24-1.86-.44-3.71-.59-5.58-.08-.94-.16-1.87-.21-2.82s-.1-1.84-.13-2.94l16.88-.7Z" fill="#ffbe9d"/><path d="M157.47,154.34c-6.08,8.88,3.93,35.22,3.93,35.22l24.18-10s-1-6.8-5.3-20c-4.68-14.47-15.44-15.98-22.81-5.22Z" fill="#263238"/><path d="M204.63,196.65l8.27-7.66,6,12.09s-8.33,6-12.25,2.12l-2.02-6.55Z" fill="#ffbe9d"/><path d="M224.61,189.35l1.4,4.59c.56,1.83-.29,3.79-2,4.64l-5.06,2.5-6-12.09,6.75-2.22c2.07-.64,4.26.51,4.91,2.58,0,0,0,0,0,0Z" fill="#ffbe9d"/></g></svg>