<?xml version="1.0" encoding="UTF-8"?><svg id="Layer_1" xmlns="http://www.w3.org/2000/svg" viewBox="0 0 31.72 31.7"><path d="m0,1.99c.02-.09.05-.18.07-.27C.22.89.7.32,1.5.09c.78-.23,1.46,0,2.04.57,3.32,3.33,6.65,6.65,9.98,9.98.67.67,1.33,1.33,2,2q.37.37.73,0c3.98-3.98,7.95-7.96,11.94-11.92.26-.26.6-.49.95-.61.88-.3,1.8.08,2.31.88.45.72.35,1.74-.24,2.4-.1.11-.2.21-.3.31-3.91,3.91-7.82,7.82-11.73,11.73q-.43.43,0,.85c3.96,3.95,7.91,7.91,11.87,11.86.4.4.68.85.68,1.44,0,1-.47,1.69-1.42,2.02-.09.03-.17.07-.26.1h-.62c-.6-.15-1.06-.52-1.49-.96-3.87-3.88-7.74-7.75-11.62-11.62-.08-.08-.15-.19-.25-.23-.1-.04-.24-.04-.35,0-.1.04-.17.15-.25.23-3.87,3.87-7.75,7.74-11.62,11.62-.43.43-.89.8-1.49.96h-.62c-.12-.04-.23-.09-.35-.13-.84-.31-1.31-1.01-1.33-1.9-.01-.63.26-1.11.69-1.54,3.96-3.95,7.91-7.91,11.87-11.86.42-.42.42-.42,0-.83C8.79,11.61,4.97,7.79,1.14,3.97.59,3.42.08,2.87,0,2.05,0,2.03,0,2.01,0,1.99Z" stroke-width="0"/></svg>