<?xml version="1.0" encoding="UTF-8"?><svg id="Layer_1" xmlns="http://www.w3.org/2000/svg" viewBox="0 0 24 24"><path d="M15,17c-.8.62-1.85,1-3,1s-2.2-.38-3-1" fill="none" stroke="#000" stroke-linecap="round" stroke-width="1.5"/><path d="M2.35,13.21c-.35-2.3-.53-3.45-.1-4.46.43-1.02,1.4-1.71,3.32-3.11l1.44-1.04c2.4-1.73,3.6-2.6,4.98-2.6s2.58.87,4.98,2.6l1.44,1.04c1.93,1.39,2.89,2.09,3.32,3.11.43,1.02.26,2.17-.1,4.46l-.3,1.96c-.5,3.26-.75,4.88-1.92,5.86-1.17.97-2.88.97-6.29.97h-2.28c-3.41,0-5.12,0-6.29-.97-1.17-.97-1.42-2.6-1.92-5.86l-.3-1.96Z" fill="none" stroke="#000" stroke-linejoin="round" stroke-width="1.5"/></svg>