<?xml version="1.0" encoding="UTF-8"?><svg id="Layer_1" xmlns="http://www.w3.org/2000/svg" viewBox="0 0 24 24"><path d="M13.14,22.75h-2.28c-3.59,0-5.39,0-6.77-1.15-1.39-1.15-1.65-2.88-2.18-6.32l-.3-1.96h0c-.36-2.36-.56-3.66-.04-4.87.52-1.21,1.54-1.95,3.57-3.42l1.44-1.04c2.53-1.83,3.79-2.74,5.42-2.74s2.89.92,5.42,2.74l1.44,1.04c2.04,1.47,3.06,2.21,3.58,3.42.52,1.21.33,2.44-.04,4.87l-.3,1.96c-.53,3.44-.79,5.16-2.18,6.32-1.38,1.15-3.18,1.15-6.77,1.15ZM3.09,13.1l.3,1.96c.47,3.07.71,4.6,1.66,5.39.96.8,2.58.8,5.81.8h2.28c3.23,0,4.85,0,5.81-.8.95-.79,1.19-2.33,1.66-5.39l.3-1.96c.33-2.15.5-3.23.15-4.06-.35-.83-1.26-1.48-3.08-2.79l-1.44-1.04c-4.53-3.27-4.55-3.27-9.08,0l-1.44,1.04c-1.81,1.31-2.72,1.97-3.07,2.79-.35.82-.18,1.9.15,4.06h0Z"/><path d="M21.74,8.75c-.43-1.02-1.4-1.71-3.33-3.11l-1.44-1.04c-2.4-1.73-3.6-2.6-4.98-2.6s-2.58.87-4.98,2.6l-1.44,1.04c-1.93,1.39-2.89,2.09-3.32,3.11s-.26,2.17.1,4.46l.3,1.96c.5,3.26.75,4.88,1.92,5.86,1.17.97,2.88.97,6.29.97h2.28c3.41,0,5.12,0,6.29-.97,1.17-.97,1.42-2.6,1.92-5.86l.3-1.96c.35-2.3.53-3.45.1-4.46ZM15.46,17.59c-.96.75-2.19,1.16-3.46,1.16s-2.5-.41-3.46-1.16c-.33-.25-.39-.73-.13-1.05.25-.33.73-.39,1.05-.13,1.4,1.09,3.68,1.09,5.08,0,.33-.26.8-.19,1.05.13.25.33.2.8-.13,1.05Z"/></svg>