<?xml version="1.0" encoding="UTF-8"?><svg id="Layer_1" xmlns="http://www.w3.org/2000/svg" xmlns:xlink="http://www.w3.org/1999/xlink" viewBox="0 0 500 500"><defs><linearGradient id="linear-gradient" x1="250" y1="475.96" x2="250" y2="24.05" gradientUnits="userSpaceOnUse"><stop offset="0" stop-color="#20b038"/><stop offset="1" stop-color="#60d66a"/></linearGradient><linearGradient id="linear-gradient-2" x1="250" y1="484.06" x2="250" y2="15.94" gradientUnits="userSpaceOnUse"><stop offset="0" stop-color="#f9f9f9"/><stop offset="1" stop-color="#fff"/></linearGradient></defs><path id="shape_3" d="M25.06,475.96l31.78-116.04c-19.61-33.96-29.92-72.49-29.9-111.95.05-123.47,100.54-223.92,224.01-223.92,59.92.03,116.17,23.35,158.45,65.67,42.3,42.33,65.58,98.59,65.55,158.42-.05,123.47-100.54,223.93-224,223.93,0,0,0,0,0,0h-.1c-37.49-.01-74.32-9.42-107.04-27.25l-118.75,31.14Z" fill="url(#linear-gradient)"/><path id="shape_2" d="M16.99,484.06l32.92-120.2c-20.3-35.18-30.99-75.09-30.97-115.97.05-127.9,104.14-231.95,232.04-231.95,62.07.03,120.33,24.18,164.14,68.03,43.81,43.85,67.92,102.13,67.9,164.11-.05,127.89-104.16,231.96-232.04,231.96,0,0,0,0,0,0h-.1c-38.83-.02-76.99-9.75-110.88-28.24l-123.01,32.25ZM145.69,409.81l7.05,4.18c29.61,17.57,63.55,26.86,98.16,26.88h.08c106.3,0,192.81-86.5,192.86-192.8.02-51.52-20.02-99.96-56.44-136.4-36.42-36.44-84.83-56.52-136.35-56.54-106.38,0-192.9,86.48-192.94,192.79-.02,36.43,10.18,71.91,29.49,102.6l4.59,7.29-19.49,71.14,73-19.14Z" fill="url(#linear-gradient-2)"/><path id="shape_1" d="M192.98,150.92c-4.34-9.66-8.92-9.85-13.05-10.02-3.38-.14-7.25-.14-11.11-.14s-10.15,1.45-15.46,7.25c-5.32,5.8-20.3,19.83-20.3,48.35s20.78,56.09,23.67,59.96c2.9,3.87,40.11,64.27,99.04,87.51,48.98,19.31,58.94,15.47,69.57,14.51,10.63-.97,34.3-14.02,39.13-27.56,4.83-13.54,4.83-25.14,3.38-27.56-1.45-2.42-5.32-3.87-11.11-6.76-5.8-2.9-34.3-16.93-39.62-18.86-5.32-1.93-9.18-2.9-13.05,2.91-3.87,5.8-14.97,18.85-18.35,22.72-3.38,3.87-6.77,4.36-12.56,1.46-5.8-2.91-24.47-9.02-46.62-28.78-17.24-15.37-28.87-34.34-32.25-40.15-3.38-5.8-.36-8.94,2.55-11.83,2.6-2.6,5.8-6.77,8.7-10.15,2.89-3.39,3.86-5.8,5.79-9.67,1.93-3.87.97-7.26-.48-10.16-1.45-2.9-12.72-31.57-17.87-43.04Z" fill="#fff" fill-rule="evenodd"/></svg>