<?xml version="1.0" encoding="UTF-8"?><svg id="Layer_1" xmlns="http://www.w3.org/2000/svg" viewBox="0 0 50 50"><path d="M23.5.97c1,0,2,0,3,0,.12.03.24.06.36.08,1.51.26,3.06.36,4.51.8,9.49,2.92,15.27,9.27,17.29,19.01.18.87.25,1.76.37,2.64v3c-.06.45-.12.89-.17,1.34-.68,5.57-2.98,10.38-7.01,14.27-5.87,5.66-12.91,7.85-20.96,6.54-5.9-.96-10.77-3.85-14.51-8.5C1.55,34.17,0,27.33,1.54,19.81,3.46,10.48,11.42,2.88,20.82,1.35c.89-.15,1.79-.25,2.69-.37ZM4.73,24.97c-.03,11.18,9.01,20.26,20.21,20.31,11.19.05,20.3-9.02,20.34-20.24.03-11.18-9.01-20.26-20.22-20.31-11.19-.05-20.3,9.02-20.33,20.24Z" fill="#d32640" stroke-width="0"/><path d="M27.68,25c.14.14.25.27.37.39,1.7,1.7,3.41,3.4,5.1,5.11,1.06,1.07.69,2.76-.7,3.18-.77.24-1.44,0-2.01-.56-1.67-1.69-3.36-3.36-5.04-5.05-.12-.12-.22-.27-.35-.44-.18.17-.31.28-.42.4-1.71,1.71-3.42,3.43-5.15,5.14-.99.98-2.54.72-3.1-.49-.33-.74-.16-1.55.47-2.19,1.69-1.69,3.38-3.39,5.08-5.07.12-.12.27-.21.41-.31.03-.08.05-.15.08-.23-.15-.08-.34-.13-.46-.24-1.71-1.7-3.41-3.4-5.11-5.1-.57-.57-.78-1.24-.52-2.01.45-1.35,2.1-1.71,3.16-.67,1.7,1.68,3.39,3.38,5.08,5.07.13.13.22.3.35.48.22-.2.34-.31.46-.43,1.69-1.69,3.39-3.38,5.07-5.08.57-.57,1.23-.8,2.01-.56,1.21.37,1.7,1.82.97,2.86-.13.18-.28.33-.44.49-1.65,1.65-3.29,3.3-4.94,4.94-.12.12-.23.24-.37.39Z" fill="#d32640" stroke-width="0"/></svg>