<?xml version="1.0" encoding="UTF-8"?><svg id="Layer_1" xmlns="http://www.w3.org/2000/svg" viewBox="0 0 50 50"><path d="M26.46,1.59c.89.12,1.78.21,2.66.37,3.21.56,6.17,1.75,8.87,3.57.95.64,1.2,1.81.6,2.72-.6.91-1.78,1.16-2.74.53-2.51-1.65-5.23-2.72-8.21-3.1-5.28-.67-10.09.53-14.34,3.73-4.19,3.15-6.83,7.35-7.55,12.55-1.08,7.69,1.53,14.02,7.72,18.74,4.08,3.11,8.79,4.26,13.87,3.67,8.1-.93,14.87-7.05,16.67-15,.73-3.23.66-6.44-.22-9.63-.36-1.32.26-2.4,1.5-2.64.97-.18,1.96.4,2.19,1.42.34,1.51.57,3.05.85,4.57.03.15.06.3.08.44v2.93c-.03.12-.07.23-.08.35-.21,2.82-.88,5.53-2.13,8.07-3.54,7.2-9.25,11.61-17.13,13.16-.86.17-1.74.25-2.61.37h-2.93c-.57-.07-1.14-.13-1.71-.21-4.69-.67-8.83-2.56-12.37-5.72-4.03-3.6-6.54-8.08-7.51-13.4-.16-.87-.24-1.74-.36-2.62,0-.98,0-1.95,0-2.93.07-.56.13-1.12.2-1.67.74-5.17,2.93-9.64,6.6-13.34,3.5-3.53,7.71-5.74,12.62-6.58.84-.14,1.68-.24,2.52-.35.98,0,1.95,0,2.93,0Z" fill="#298853" stroke-width="0"/><path d="M48.41,7.81c-.31.46-.56.98-.94,1.37-6.96,6.98-13.94,13.95-20.9,20.93-.61.61-1.29.94-2.14.65-.32-.11-.63-.31-.87-.55-2.57-2.54-5.12-5.1-7.67-7.66-.84-.84-.86-2.03-.08-2.82.8-.8,1.99-.77,2.85.09,1.99,1.98,3.97,3.96,5.95,5.95.12.12.21.26.34.41.19-.18.32-.3.45-.42,6.51-6.51,13.02-13.02,19.53-19.53,1.2-1.2,2.76-.89,3.4.67.02.04.05.07.08.1v.82Z" fill="#298853" stroke-width="0"/></svg>