<?xml version="1.0" encoding="UTF-8"?><svg id="Layer_1" xmlns="http://www.w3.org/2000/svg" viewBox="0 0 50 50"><path d="M.79,26.51c0-1.01,0-2.02,0-3.03.03-.15.06-.3.08-.46.18-1.17.28-2.35.55-3.49C4.48,6.55,17.11-1.43,30.17,1.34c10.69,2.27,18.68,11.78,19.03,22.7.2,6.42-1.78,12.1-6.02,16.93-3.73,4.26-8.43,6.88-14.01,7.87-.88.16-1.77.25-2.66.37h-3.03c-.12-.03-.24-.07-.36-.08-2.58-.19-5.08-.74-7.45-1.8-7.97-3.54-12.84-9.59-14.52-18.17-.17-.88-.25-1.77-.37-2.66ZM25.03,4.57c-11.27-.02-20.42,9.08-20.46,20.37-.04,11.27,9.1,20.46,20.4,20.48,11.27.03,20.41-9.08,20.46-20.38.05-11.28-9.1-20.46-20.4-20.48Z" fill="#fda90d" stroke-width="0"/><path d="M23.11,20.95c0-1.97,0-3.94,0-5.91,0-1.23.78-2.07,1.9-2.07,1.1,0,1.88.84,1.88,2.05,0,3.95,0,7.91,0,11.86,0,1.19-.79,2.05-1.88,2.05-1.08,0-1.9-.86-1.9-2.04,0-1.98,0-3.97,0-5.95Z" fill="#fda90d" stroke-width="0"/><path d="M25,36.35c-1.41,0-2.55-1.14-2.55-2.55,0-1.4,1.16-2.55,2.56-2.55,1.4,0,2.55,1.16,2.55,2.56,0,1.41-1.14,2.54-2.56,2.54Z" fill="#fda90d" stroke-width="0"/></svg>