<?xml version="1.0" encoding="UTF-8"?><svg id="Layer_1" xmlns="http://www.w3.org/2000/svg" viewBox="0 0 50 50"><path d="M45,37.23c-2.84-.79-3.95-2.95-4.67-5.44-.21-.73-.39-1.47-.54-2.21-.54-2.58-1.58-4.86-3.8-6.46-.39-.28-.48-.68-.25-1.11.22-.4.59-.52,1.02-.4.99.27,2,.51,2.97.84,1.94.67,3.88,1.33,5.78,2.12.99.41,1.87,1.06,2.8,1.59.58-7.27-2.99-16.11-11.1-21.07C28.69-.1,18.12.62,10.2,6.97c-2.89,2.32-5.05,5.23-6.55,8.62-1.49,3.38-2.14,6.91-1.96,10.6,1.01-.58,1.94-1.17,2.92-1.66,2.75-1.36,5.72-2.06,8.65-2.89.47-.13.84.06,1.03.48.21.46.02.85-.37,1.13-1.94,1.39-2.97,3.33-3.52,5.6-.28,1.16-.53,2.32-.88,3.46-.71,2.3-1.9,4.2-4.5,4.91,4.74,7.08,11.21,11.04,19.67,11.14l19.24-9.62c.37-.48.72-.98,1.07-1.5ZM31.21,19.93c.51-2.11,1.47-3.94,3.26-5.26.14-.11.29-.21.45-.3.48-.27.96-.16,1.22.28.24.4.14.89-.3,1.17-1.17.74-1.97,1.78-2.45,2.97,1.08-.19,2.17-.49,3.27-.55,1.84-.11,3.46.57,4.86,1.76.44.37.5.85.19,1.24-.32.39-.79.46-1.25.1-2.48-1.97-5-1.64-7.56-.19-.47.27-.92.66-1.48.24-.52-.4-.33-.95-.2-1.45ZM11.5,21.21c-.34.27-.7.47-1.14.26-.59-.28-.65-1.01-.1-1.48,1.72-1.47,3.7-2.05,5.93-1.68.74.12,1.46.37,2.24.57-.51-1.23-1.26-2.24-2.36-2.98-.58-.39-.72-.86-.41-1.31.31-.45.8-.52,1.38-.12,2.15,1.47,3.21,3.6,3.62,6.09.04.26-.15.7-.36.81-.27.14-.7.11-1,0-.88-.35-1.7-.88-2.61-1.15-1.88-.57-3.64-.26-5.19.99ZM34.43,38.3c-3.77,3.31-8.72,4.35-14.19,2.59-3.64-1.17-6.37-3.5-7.75-7.15-.38-1.01-.51-2.13-.64-3.22-.11-.86.25-1.17,1.13-1.17,5.85,0,11.69,0,17.54,0,2.18,0,4.37,0,6.55,0,.88,0,1.17.31,1.15,1.18-.08,2.66-1.21,5.18-3.79,7.77Z" fill="#fff"/><path d="M40.83,26.99c.34.95.54,1.94.79,2.92.1.4.15.82.3,1.21.32.86.58,1.75,1.03,2.54.93,1.63,2.38,2.23,3.89,1.71,2.8-.96,3.67-4.84,1.56-6.76-2.52-2.29-5.56-3.46-8.76-4.36-.03,0-.06.02-.04.01.41.91.88,1.8,1.22,2.74Z" fill="#fff"/><path d="M10.56,24.18c-1.54,2.19-1.91,4.64-2.5,7.01-.08.31-.14.64-.29.93-.36.72-.67,1.5-1.18,2.11-1.28,1.55-2.98,1.69-4.58.48-1.45-1.09-2.08-3.39-1.21-4.97.41-.74,1.1-1.38,1.77-1.93,2.01-1.65,4.41-2.56,6.87-3.31.32-.1.64-.19,1.12-.33Z" fill="#fff"/><path d="M34.16,36.1c1.28-1.38,2.05-3.03,2.27-4.92-7.64,0-15.23,0-22.83,0,.19,1.71.85,3.27,2,4.6,4.72,5.47,13.65,5.62,18.56.32Z" fill="#fff"/></svg>