<?xml version="1.0" encoding="UTF-8"?><svg id="Layer_1" xmlns="http://www.w3.org/2000/svg" viewBox="0 0 19 19"><path d="M.02,13.65c-.02-.45-.04-1.32.04-2.21.05-.58.16-1.28.17-1.33.02-.15.05-.3.07-.45.41-2.2,1.3-4.21,2.54-6.07.05-.07.13-.14.21-.17,1.17-.53,2.39-.9,3.65-1.14.1-.02.16,0,.21.1.11.24.25.47.35.71.06.15.14.19.3.17.51-.06,1.02-.13,1.53-.13.81.01,1.61.08,2.42.13.13,0,.2-.02.25-.14.11-.25.24-.49.35-.73.05-.1.1-.13.22-.11,1.26.23,2.47.6,3.63,1.13.09.04.18.11.23.2.34.56.7,1.11,1,1.69.59,1.11,1.04,2.27,1.34,3.47.05.2.28,1.14.41,2.42.09.93.09,1.74.07,2.39-.02.2-.04.4-.08.6-.01.08-.05.17-.11.21-1.4,1.02-2.92,1.8-4.57,2.31-.11.04-.17.01-.23-.08-.29-.47-.58-.95-.87-1.42-.02-.03-.03-.08-.05-.13.54-.23,1.07-.44,1.56-.76-.25-.31-.32-.33-.61-.2-3.01,1.29-6.03,1.28-9.04.02-.33-.14-.44-.11-.66.21.52.25,1.04.5,1.56.75,0,.02,0,.04,0,.05-.31.51-.61,1.01-.93,1.51-.03.04-.14.05-.2.04-1.64-.51-3.15-1.28-4.54-2.29-.06-.05-.11-.14-.12-.22-.04-.17-.05-.35-.07-.52ZM14.39,10.21c-.05-.24-.07-.49-.15-.72-.43-1.24-1.89-1.58-2.76-.65-.72.77-.68,2.1.08,2.83.65.62,1.61.61,2.24-.03.39-.39.56-.88.59-1.43ZM8.06,10.23c0-.19-.01-.53-.2-.9-.31-.59-1-1.11-1.73-1-.29.04-.58.17-.82.39-.86.75-.88,2.22-.03,2.99.66.6,1.59.58,2.21-.06.39-.39.56-.88.57-1.42Z" fill="#5865f1"/></svg>